<?xml version="1.0" encoding="UTF-8"?>
<svg version="1.1" xmlns="http://www.w3.org/2000/svg" width="300" height="118">
<path d="M0 0 C0.99 0.99 0.99 0.99 2 2 C1.86075572 4.88175117 1.03399914 5.96360656 -0.94140625 8.078125 C-8.7954629 14.58610637 -20.43703144 23.40280036 -31 24 C-34 21.5 -34 21.5 -37 19 C-41.38828401 19.18765688 -43.73853997 21.08088333 -47 23.875 C-47.96164063 24.68710937 -48.92328125 25.49921875 -49.9140625 26.3359375 C-51.46735343 27.67285947 -53.01658768 29.01437323 -54.56542969 30.35644531 C-63.33840466 37.94958775 -72.35031389 44.60676264 -82.0390625 51.0078125 C-82.95429687 51.62398437 -83.86953125 52.24015625 -84.8125 52.875 C-85.62332031 53.40867188 -86.43414062 53.94234375 -87.26953125 54.4921875 C-87.84058594 54.98976562 -88.41164062 55.48734375 -89 56 C-89 56.99 -89 57.98 -89 59 C-86.03 59.66 -83.06 60.32 -80 61 C-79.0703125 63.0390625 -79.0703125 63.0390625 -79 66 C-80.93946469 68.80716223 -83.39265641 71.04892845 -85.875 73.375 C-86.5673877 74.03822266 -87.25977539 74.70144531 -87.97314453 75.38476562 C-89.96554531 77.27519497 -91.98015046 79.13900321 -94 81 C-95.3303125 82.27230469 -95.3303125 82.27230469 -96.6875 83.5703125 C-101.65959383 87.95640956 -101.65959383 87.95640956 -105.40234375 88.078125 C-106.9606791 87.86596913 -108.513664 87.60707981 -110.0546875 87.29296875 C-112.13766416 86.80298809 -112.13766416 86.80298809 -114.4375 88.0625 C-117.48492438 91.84130624 -118.23164039 95.43724228 -117.8125 100.1875 C-117.00166843 104.39792725 -117.00166843 104.39792725 -114 107 C-111.07842046 107.97385985 -109.20588535 108.1293474 -106.16428852 108.1386652 C-105.16206424 108.14413964 -104.15983996 108.14961409 -103.12724525 108.15525442 C-102.02317256 108.15623253 -100.91909987 108.15721064 -99.78157043 108.15821838 C-98.02588156 108.16562535 -98.02588156 108.16562535 -96.23472422 108.17318195 C-92.98065027 108.18591063 -89.72659949 108.19418541 -86.47250807 108.20060861 C-82.96535808 108.20860647 -79.4582299 108.22230636 -75.95109558 108.23532104 C-69.87299596 108.25709251 -63.79489414 108.27523455 -57.71677589 108.29092598 C-48.92878932 108.3136185 -40.14082688 108.34176218 -31.35286077 108.37124526 C-17.09568411 108.41892875 -2.83849759 108.46219088 11.41870117 108.50268555 C25.26994596 108.54203662 39.12118198 108.58346191 52.97241211 108.62768555 C54.25265096 108.63177196 54.25265096 108.63177196 55.55875321 108.63594092 C59.8403858 108.64962033 64.12201825 108.66334062 68.40365064 108.67708123 C103.93574893 108.7910579 139.46786578 108.89786462 175 109 C175 110.65 175 112.3 175 114 C138.28525246 114.06864983 101.57051458 114.1215205 64.85571586 114.15319599 C60.52230005 114.15694816 56.18888437 114.16083112 51.85546875 114.16479492 C50.99275494 114.16558185 50.13004114 114.16636878 49.24118449 114.16717956 C35.2678213 114.18023746 21.2944951 114.20389342 7.32115386 114.23145839 C-7.01421011 114.25950189 -21.3495547 114.27617403 -35.68494499 114.28226548 C-44.5323701 114.28638412 -53.37969067 114.29939774 -62.22708361 114.3237494 C-68.29208785 114.33959356 -74.35703796 114.34440335 -80.4220614 114.34050413 C-83.92253704 114.33858052 -87.42282986 114.34155251 -90.92327309 114.35761642 C-94.71796745 114.37249515 -98.51221095 114.36896999 -102.30691528 114.36076355 C-103.9674258 114.37387134 -103.9674258 114.37387134 -105.66148198 114.38724393 C-111.18035466 114.35488236 -115.27571056 114.1975968 -120 111 C-124.2989172 106.35252194 -125.35515565 102.63479055 -125.28515625 96.46484375 C-124.71140001 91.5053891 -122.28833565 87.25893987 -119.84375 82.97265625 C-117.34445008 78.46499033 -116.82082697 75.46404384 -117.03125 70.34375 C-116.85575732 57.18179903 -106.85964353 45.75143415 -98 37 C-84.77110932 24.76817241 -69.6722728 14.81985738 -54 6 C-53.40445313 5.66452148 -52.80890625 5.32904297 -52.1953125 4.98339844 C-36.50780102 -3.70809946 -16.81417801 -8.8258329 0 0 Z " fill="#FCFCFC" transform="translate(125,4)"/>
<path d="M0 0 C3.85766104 3.85766104 4.30515395 7.10197884 4.5 12.375 C4.20988938 21.16835281 0.99917643 26.67637294 -5 33 C-15.56521399 41.21738866 -28.11529762 46.91018502 -39.99731445 52.92773438 C-41.94007345 53.84353579 -41.94007345 53.84353579 -43 55 C-30.79 55 -18.58 55 -6 55 C-7 63 -7 63 -10 70 C-30.46 70 -50.92 70 -72 70 C-68.2372054 58.71161621 -63.37802111 50.72017075 -53.375 44.25 C-52.73618896 43.82807373 -52.09737793 43.40614746 -51.43920898 42.97143555 C-45.42695304 39.09272285 -39.13007154 35.79041023 -32.69873047 32.66308594 C-26.38423203 29.50785757 -20.24498105 25.59196968 -16.4375 19.5 C-15.83100994 16.03434253 -16.10286233 13.3963069 -17 10 C-19.36141244 7.91105823 -21.16789971 7.98416041 -24.3125 7.6875 C-28.72073563 8.06107929 -31.23189205 8.62748759 -35 11 C-37.07345608 14.24336582 -38.47350428 17.43817666 -40 21 C-45.94 21 -51.88 21 -58 21 C-56.49582541 11.97495246 -52.3343245 5.24689979 -45.20703125 -0.53125 C-32.00832596 -9.31481316 -12.62415805 -10.14492159 0 0 Z " fill="#FCFCFC" transform="translate(271,40)"/>
<path d="M0 0 C3.42005889 3.74068941 3.52123257 7.55841917 3.33984375 12.44140625 C2.65314536 17.61137689 0.85784634 21.34070212 -3.046875 24.828125 C-4.98876222 26.30175573 -6.9480702 27.6851712 -9 29 C-8.57847656 29.40089844 -8.15695313 29.80179688 -7.72265625 30.21484375 C-3.93640196 34.14363938 -2.06223954 37.16973609 -1.84765625 42.68359375 C-2.37351745 50.67938077 -5.86241753 55.95110173 -11.3203125 61.6953125 C-20.24446223 69.37060163 -29.37074401 71.2003048 -40.6875 71.3125 C-41.64333984 71.34150391 -42.59917969 71.37050781 -43.58398438 71.40039062 C-50.16245956 71.45868659 -55.33115356 70.45332967 -61 67 C-65.17146207 62.82853793 -67.09088979 58.74675368 -67.1875 52.875 C-67 49 -67 49 -66 46 C-59.73 46 -53.46 46 -47 46 C-47 48.64 -47 51.28 -47 54 C-45.67734485 56.22303517 -45.67734485 56.22303517 -43 57 C-37.34465852 57.87774455 -32.64485192 57.09287983 -27.66796875 54.26171875 C-24.9237135 52.18585354 -23.96201497 50.27085088 -23 47 C-23.21615256 43.22623449 -23.21615256 43.22623449 -24 40 C-29.27913453 37.91613111 -34.39538469 37.42089996 -40 37 C-39.69106068 35.3743193 -39.3777305 33.74947252 -39.0625 32.125 C-38.88847656 31.22007813 -38.71445313 30.31515625 -38.53515625 29.3828125 C-38 27 -38 27 -37 25 C-33.77866123 24.38576168 -30.55360527 24.0396169 -27.296875 23.66015625 C-23.88666737 22.97730662 -21.79297534 22.04179605 -19 20 C-17.35388976 17.15671868 -16.94538946 15.58706334 -17.25 12.3125 C-17.85892483 9.83809494 -17.85892483 9.83809494 -20 8 C-24.52745983 7.38298335 -28.72150467 7.45595943 -32.9375 9.25 C-36.0646359 11.90332743 -37.7009353 14.10280591 -39 18 C-44.94 18 -50.88 18 -57 18 C-55.25640198 9.28200988 -50.41878611 3.5996906 -43.296875 -1.5625 C-30.47623894 -9.58629944 -11.93901216 -9.58484075 0 0 Z " fill="#FCFCFC" transform="translate(200,40)"/>
<path d="M0 0 C-3.27032646 14.40686408 -6.95480368 28.70659438 -10.65551758 43.0078125 C-11.52665015 46.37489599 -12.39281083 49.74323832 -13.25784588 53.1118927 C-14.08935485 56.34623483 -14.925825 59.57928833 -15.76171875 62.8125 C-16.07211594 64.02268799 -16.38251312 65.23287598 -16.70231628 66.47973633 C-16.98964127 67.58599365 -17.27696625 68.69225098 -17.57299805 69.83203125 C-17.825186 70.80889893 -18.07737396 71.7857666 -18.33720398 72.79223633 C-19 75 -19 75 -20 76 C-21.41570123 76.08651611 -22.835595 76.10704904 -24.25390625 76.09765625 C-25.10791016 76.09443359 -25.96191406 76.09121094 -26.84179688 76.08789062 C-27.73962891 76.07951172 -28.63746094 76.07113281 -29.5625 76.0625 C-30.46419922 76.05798828 -31.36589844 76.05347656 -32.29492188 76.04882812 C-34.53001314 76.03700225 -36.76497437 76.0205222 -39 76 C-35.43086818 58.47880742 -30.63725884 41.26090789 -26 24 C-32.93 24 -39.86 24 -47 24 C-45.515 18.555 -45.515 18.555 -44 13 C-43.01 12.90203125 -42.02 12.8040625 -41 12.703125 C-30.30990297 11.81096673 -30.30990297 11.81096673 -21 7 C-20.30458129 5.7657645 -19.6386567 4.51454026 -19 3.25 C-15.43625964 -2.65598668 -5.97887661 -0.36556911 0 0 Z " fill="#FCFCFC" transform="translate(123,34)"/>
<path d="M0 0 C2.0625 1.6875 2.0625 1.6875 4 4 C3.96340921 7.65298091 3.16304366 8.83825653 0.55078125 11.4296875 C-0.51515022 12.26236255 -1.59563356 13.07663585 -2.6875 13.875 C-3.26113281 14.30409668 -3.83476563 14.73319336 -4.42578125 15.17529297 C-20.82316019 27.06960383 -20.82316019 27.06960383 -29 26 C-31.8125 24.125 -31.8125 24.125 -34 22 C-34 21.34 -34 20.68 -34 20 C-32.94683594 19.53851562 -31.89367187 19.07703125 -30.80859375 18.6015625 C-20.07714603 13.78836741 -8.42772956 8.42772956 0 0 Z " fill="#FCFCFC" transform="translate(129,9)"/>
<path d="M0 0 C2.475 1.485 2.475 1.485 5 3 C2.29659404 12.61211009 -8.04220484 20.62141118 -16 26 C-19.12109375 27.03515625 -19.12109375 27.03515625 -22 27 C-24.375 25.0625 -24.375 25.0625 -26 23 C-25.37996094 22.59652344 -24.75992187 22.19304687 -24.12109375 21.77734375 C-15.03858842 15.55047328 -7.60937947 7.91066455 0 0 Z " fill="#FCFCFC" transform="translate(49,69)"/>
</svg>
